<svg xmlns="http://www.w3.org/2000/svg" width="768" height="140" fill="none" viewBox="0 0 768 140"><g clip-path="url(#clip0_2_3)"><path fill="currentColor" fill-opacity=".988" d="M198.882 23.6387C206.615 23.0914 213.631 23.7854 220.771 27.0914C229.712 31.199 236.611 38.7494 239.9 48.0247C248.76 72.277 236.707 92.5708 213.112 100.649C220.486 107.247 235.931 116.466 246.221 110.384C247.799 109.453 247.844 109.271 249.635 108.806C248.858 110.666 246.798 112.493 245.341 114.001C232.924 126.364 217.508 112.029 210.995 100.852C200.064 101.662 191.217 100.989 181.948 95.0305C157.559 79.3555 160.129 38.3728 187.143 26.8654C191.171 25.1498 194.642 24.4834 198.882 23.6387ZM213.569 98.3964C234.672 92.0082 237.474 74.0111 231.231 54.5967C225.566 36.9778 214.004 25.1744 194.667 25.9707C156.32 35.5235 175.811 103.493 213.569 98.3964Z"/><path fill="currentColor" fill-opacity=".988" d="M725.231 99.3181C733.401 99.9898 740.872 98.9222 745.175 90.9498C754.052 74.5023 726.354 67.2924 716.139 61.8942C705.51 56.2815 698.832 47.1154 705.349 35.0538C707.993 30.1506 712.343 27.1875 717.638 25.5811L718.43 26.372C715.64 28.2982 714.502 29.1929 711.997 31.4774C700.991 65.616 760.777 50.9994 752.838 85.0574C749.695 98.5394 733.463 102.351 721.619 100.731L725.231 99.3181Z"/><path fill="currentColor" fill-opacity=".988" d="M57.5642 94.9016C77.5658 60.1988 1.25451 71.8545 20.7036 34.3546C23.1745 29.5905 27.5399 26.8941 32.5532 25.5151L32.9228 26.4552C26.2886 31.1378 20.297 39.3092 27.2471 46.6998C39.2496 59.4639 54.8443 57.7621 66.979 71.8168C69.8911 86.2366 63.8003 99.7018 47.8205 100.653L47.2794 99.5819C52.0337 98.3328 53.2903 97.465 57.5642 94.9016Z"/><path fill="currentColor" d="M343.483 33.665C342.763 29.9794 341.931 28.9925 343.517 26.2338L349.57 23.356C355.996 38.3423 361.93 53.5515 368.299 68.5532C373.103 79.8523 376.238 91.7978 385.323 100.348C381.718 100.442 371.512 101.02 368.591 100.184C367.254 97.299 369.575 94.5979 369.298 93.5733C367.731 87.7516 361.606 78.1835 360.887 72.421L360.816 70.2772L359.572 69.5017C354.382 61.1449 349.825 43.6913 344.197 34.3784L343.483 33.665Z"/><path fill="currentColor" d="M525.169 24.4759C528.958 24.3183 539.964 23.3029 542.554 25.0577C535.737 34.034 539.51 78.3003 539.295 91.179C539.226 95.2382 540.963 97.887 544.099 100.322C538.012 100.612 531.148 100.434 525 100.41C525.768 99.5772 526.514 98.7256 527.244 97.8562C532.57 91.4565 529.404 46.2616 529.819 35.8211C529.996 31.4283 528.643 27.3998 525.169 24.4759Z"/><path fill="currentColor" d="M679.887 24.2112C682.892 24.1674 689.148 23.7185 691.53 24.8561C689.893 29.0706 685.958 27.9329 685.735 34.109C685.028 53.5896 685.367 73.197 685.374 92.7014C685.382 94.942 688.833 96.4024 689.148 100.14C685.697 100.986 675.521 100.485 671.456 100.407C672.293 99.5678 675.521 96.2741 675.714 95.6507C676.643 92.6953 676.736 80.3647 676.528 77.4038C675.998 69.6228 677.366 40.8201 675.959 34.983L674.222 33.9238C675.883 31.0214 678.088 26.8915 679.887 24.2112Z"/><path fill="currentColor" d="M253.808 24.8831C257.17 25.1244 264.521 24.312 266.387 25.6026C266.41 36.0354 266.093 49.3376 266.598 59.5229L266.459 61.1548C266.486 71.2271 265.328 85.4909 267.537 95.2542C267.852 96.6462 270.268 99.2604 271.334 100.421C265.072 100.454 258.809 100.446 252.548 100.397C255.555 97.3565 257.102 94.8199 257.208 90.0874C257.632 70.8789 258.198 50.1085 256.81 30.9738C256.645 28.6963 255.147 26.5226 253.808 24.8831Z"/><path fill="currentColor" fill-opacity=".988" d="M136.024 95.849C123.326 103.509 107.386 103.317 94.8767 95.3533C82.3677 87.3893 75.4461 73.0272 77.0109 58.2799C78.5757 43.5319 88.3555 30.9422 102.258 25.7808L103.181 26.7907C95.4647 30.5402 90.4353 34.4688 87.7369 43.0008C81.5915 62.4352 92.1791 90.6484 112.515 97.281C120.953 100.033 126.796 98.2764 134.581 95.1634L136.024 95.849Z"/><path fill="currentColor" d="M400.548 25.5864C403.307 24.541 406.681 24.1666 409.379 25.5648C409.886 47.874 409.025 70.453 409.64 92.7745C409.755 96.9098 412.975 97.3995 413.206 100.043C409.778 100.98 399.349 100.481 395.268 100.409C396.036 99.7254 396.79 99.0236 397.52 98.3049C401.263 94.6238 400.594 90.6753 400.594 85.5707C400.602 65.5713 400.294 45.5873 400.548 25.5864Z"/><path fill="currentColor" d="M555.888 98.7008C560.953 92.6501 557.817 60.5906 558.447 51.8888C558.878 45.9963 558.494 36.5773 558.017 30.5642C557.648 27.4873 556.734 27.1914 554.628 25.1783L555.096 24.4719C558.401 24.1998 568.346 23.8216 571.159 24.9239C570.314 26.4066 567.778 30.6702 567.708 32.2913C566.925 50.798 567.301 69.4062 567.232 87.9336C567.217 92.3695 566.978 95.5002 570.199 98.7285C566.671 100.417 559.723 99.9875 555.888 98.7008Z"/><path fill="currentColor" d="M465.798 25.0644C469.187 24.9844 475.613 24.1835 478.203 25.5563C478.387 29.6286 478.08 56.2583 478.748 57.8187C477.065 60.4936 476.865 83.4438 478.387 85.5176C478.487 92.4992 478.956 93.088 481.054 99.497L480.209 100.527C475.259 100.8 469.51 100.522 464.492 100.402C467.404 97.218 469.034 94.8828 469.172 89.9427C469.695 70.702 470.379 49.5934 468.696 30.4803C468.527 28.5894 466.913 26.4156 465.798 25.0644Z"/><path fill="currentColor" fill-opacity=".961" d="M617.311 36.7501C618.51 35.4241 618.118 35.8515 619.801 34.9775C618.902 43.8462 617.465 90.5968 621.907 95.663C623.521 97.5 625.888 98.8436 627.825 100.334L612.262 100.483C613.284 99.3994 616.02 96.5192 616.197 95.2756C618.556 78.8388 617.426 53.3029 617.311 36.7501Z"/><path fill="currentColor" d="M102.258 25.7807C121.154 18.7661 142.284 27.2827 151.034 45.4419C159.785 63.6012 153.282 85.4377 136.024 95.849L134.581 95.1634C147.293 85.3562 148.179 69.705 143.554 55.4543C137.2 35.8792 124.369 23.0159 103.181 26.7907L102.258 25.7807Z"/><path fill="currentColor" d="M617.311 36.7502L617.104 35.6872C615.513 27.8962 614.068 29.8516 612.315 24.88C614.46 23.7708 620.623 24.1751 623.421 24.1997C628.793 31.4635 648.291 68.1548 652.926 70.2409L654.409 70.679L647.984 81.3048C638.523 66.433 629.078 50.1054 619.801 34.9777C618.118 35.8516 618.51 35.4243 617.311 36.7502Z"/><path fill="currentColor" fill-opacity=".984" d="M266.598 59.5227C272.986 59.6419 277.036 59.8355 283.291 58.3882L283.068 60.5796C305.91 66.7611 300.07 95.6306 313.046 99.0473L314.872 100.31C288.349 103.408 298.521 74.6981 279.605 61.3259C275.604 61.0039 270.552 61.1492 266.459 61.1545L266.598 59.5227Z"/><path fill="currentColor" d="M281.887 24.665C288.307 25.5474 296.177 26.5252 299.906 32.3415C309.484 47.2855 296.55 58.5147 283.068 60.5801L283.291 58.3886C299.048 52.5907 296.572 34.7827 282.29 27.3453L281.887 24.665Z"/><path fill="currentColor" fill-opacity=".976" d="M16.9806 94.0472C16.6847 87.8366 16.4027 82.6436 16.6755 76.4106C22.9024 91.7121 30.0376 99.3548 47.2794 99.5815L47.8204 100.653C36.9047 102.851 26.4315 99.0027 16.9806 94.0472Z"/><path fill="currentColor" fill-opacity=".969" d="M503.857 56.5134C505.825 54.0552 507.623 51.8808 509.352 49.2305C509.383 55.5357 509.521 62.1314 509.321 68.4097L504.441 61.4227C494.496 59.1352 488.401 59.4681 478.395 59.6341C478.418 67.3029 478.787 78.1047 478.387 85.5175C476.865 83.4437 477.065 60.4934 478.748 57.8185C487.341 57.8531 495.372 58.1314 503.857 56.5134Z"/><path fill="currentColor" fill-opacity=".984" d="M32.5531 25.5147C39.2203 23.2795 63.014 21.4324 65.3973 31.0505C65.9868 33.4264 66.0083 41.4757 66.0759 44.2121C59.1905 29.5048 49.9048 22.1058 32.9228 26.4548L32.5531 25.5147Z"/><path fill="currentColor" fill-opacity=".988" d="M701.829 77.2764L702.29 78.1864C708.769 90.7077 711.943 95.0582 725.231 99.318L721.619 100.731C713.749 100.069 709.53 97.6178 702.452 94.2957L701.829 77.2764Z"/><path fill="currentColor" fill-opacity=".984" d="M717.638 25.581C728.921 21.717 740.072 23.6924 750.886 28.2052L750.901 42.1561C741.878 27.4311 736.122 23.6909 718.43 26.3719L717.638 25.581Z"/><path fill="currentColor" fill-opacity=".875" d="M343.483 33.665L344.197 34.3784C342.073 43.1832 331.459 64.0474 330.429 70.1443L330.231 71.0728L329.656 71.8483C327.102 77.8615 322.862 87.5433 321.046 93.6502L319.136 92.3474C327.245 77.4164 334.72 49.8758 343.483 33.665Z"/><path fill="currentColor" d="M445.086 90.0688C447.914 88.8006 451.226 90.0266 452.548 92.8252C453.87 95.6238 452.702 98.9636 449.927 100.334C448.091 101.243 445.9 101.088 444.209 99.929C442.519 98.7691 441.581 96.7853 441.765 94.7407C441.942 92.6961 443.218 90.9097 445.086 90.0688Z"/><path fill="currentColor" fill-opacity=".949" d="M604.96 98.0537L604.507 99.89C600.902 100.898 558.332 100.796 554.343 100.174L554.459 99.1736L555.888 98.7009C559.723 99.9876 566.671 100.417 570.199 98.7286C576.893 98.6671 584.371 98.7524 590.988 98.4457C594.116 100.945 601.41 99.3335 604.96 98.0537Z"/><path fill="currentColor" fill-opacity=".867" d="M674.222 33.9238L675.959 34.983C671.917 39.8885 658.459 63.7596 654.409 70.679L652.926 70.2408C656.461 63.097 669.742 40.5119 674.222 33.9238Z"/><path fill="currentColor" fill-opacity=".98" d="M590.988 98.4457C600.249 95.514 600.979 93.7631 605.76 85.4409L604.96 98.0536C601.41 99.3334 594.116 100.945 590.988 98.4457Z"/><path fill="currentColor" fill-opacity=".984" d="M429.23 24.3589L431.805 24.4442C434.072 27.7471 433.434 34.0392 433.388 38.1776C429.822 31.7225 428.054 28.4766 420.515 26.0092C422.167 25.0038 427.048 24.6394 429.23 24.3589Z"/><path fill="currentColor" fill-opacity=".878" d="M465.798 25.0646L465.468 24.7125C467.297 23.8332 511.558 23.9062 516.069 24.6088C512.987 24.7656 505.909 24.7571 503.542 26.0038C499.576 26.3413 481.892 25.9685 478.203 25.5565C475.613 24.1837 469.187 24.9846 465.798 25.0646Z"/><path fill="currentColor" fill-opacity=".875" d="M377.314 24.5427C383.524 22.9055 420.546 24.2129 429.23 24.359C427.048 24.6395 422.167 25.0039 420.515 26.0093C416.442 26.0785 413.452 25.8863 409.379 25.565C406.681 24.1668 403.307 24.5412 400.548 25.5865C396.913 25.8256 392.993 26.236 389.388 25.874C387.605 24.8294 380.035 24.7487 377.314 24.5427Z"/><path fill="currentColor" fill-opacity=".988" d="M377.314 24.5425C380.035 24.7485 387.605 24.8292 389.388 25.8738C382.026 28.5164 380.043 31.6494 376.431 38.0983C376.507 33.6317 376.953 29.0091 377.314 24.5425Z"/><path fill="currentColor" fill-opacity=".984" d="M503.542 26.004C505.909 24.7572 512.987 24.7657 516.069 24.6089L516.915 37.7497C513.141 31.2915 511.174 28.3015 503.542 26.004Z"/><path fill="currentColor" fill-opacity=".984" d="M319.136 92.3472L321.046 93.65C321.47 96.2696 321.806 97.0336 323.236 99.2696L322.694 100.372C319.655 100.576 317.849 100.482 314.872 100.31L313.046 99.0474C316.25 96.4633 316.737 95.7062 319.136 92.3472Z"/><path fill="currentColor" fill-opacity=".89" d="M253.809 24.8831C258.47 23.3551 276.486 24.1598 281.887 24.6648L282.29 27.3451C277.526 25.817 271.478 25.8493 266.387 25.6026C264.521 24.312 257.17 25.1245 253.809 24.8831Z"/><path fill="currentColor" fill-opacity=".984" d="M359.572 69.5015L360.816 70.277L360.887 72.4208L359.974 71.7551C357.012 70.5438 334.823 71.0503 330.23 71.0726L330.429 70.1441C335.635 70.1894 355.614 70.7213 359.572 69.5015Z"/><path fill="currentColor" fill-opacity=".522" d="M330.231 71.0725C334.823 71.0503 357.012 70.5437 359.974 71.7551C350.633 72.2025 339.151 71.8727 329.656 71.8481L330.231 71.0725Z"/></g><defs><clipPath id="clip0_2_3"><rect width="768" height="140" fill="#fff"/></clipPath></defs></svg>